<svg xmlns="http://www.w3.org/2000/svg" width="36" height="36" viewBox="0 0 36 36">
  <g id="Group_71279" data-name="Group 71279" transform="translate(-299 -313)">
    <rect id="Rectangle" width="36" height="36" rx="12" transform="translate(299 313)" fill="#f99106" opacity="0.6"/>
    <path id="Vector" d="M8.244,0a8.244,8.244,0,1,0,8.244,8.244A8.253,8.253,0,0,0,8.244,0Zm0,12.679a.793.793,0,1,1,.56-.232A.793.793,0,0,1,8.244,12.679ZM9.1,4.707,8.877,9.542a.634.634,0,0,1-1.268,0L7.381,4.709v0a.862.862,0,1,1,1.722,0Z" transform="translate(308.756 322.756)" fill="#fff"/>
  </g>
</svg>
