<svg xmlns="http://www.w3.org/2000/svg" width="24" height="24" viewBox="0 0 24 24">
  <g id="btn.map" transform="translate(-0.222)">
    <rect id="Rectangle" width="24" height="24" rx="6" transform="translate(0.222)" fill="#3f51b5"/>
    <g id="Direction" transform="translate(5.332 4.903)">
      <path id="Path_26" data-name="Path 26" d="M167.939,731.874s.215-4.219-3.081-5.581a6.541,6.541,0,0,0-.43,1.111l-1.72-3.153,3.4-1.039-.358,1.039s4.621,1.612,4.407,7.452A15.087,15.087,0,0,1,167.939,731.874Z" transform="translate(-162.709 -717.68)" fill="#fff"/>
      <path id="Path_27" data-name="Path 27" d="M214,730.533a5.4,5.4,0,0,1,2.734-1.754,8.731,8.731,0,0,0-.394-1.146l3.726,1.146-1.755,3.009-.537-1.039a5.42,5.42,0,0,0-2.723,2.58C214.943,733.293,214,730.533,214,730.533Z" transform="translate(-206.63 -721.527)" fill="#fff"/>
      <path id="Path_28" data-name="Path 28" d="M198.337,701.152l-.974-1.228v-3.11h-1.228l2.455-3.437,2.5,3.437h-1.432v3.11l-1.064,1.228" transform="translate(-191.832 -693.378)" fill="#fff"/>
    </g>
  </g>
</svg>
