<svg id="btn.call" xmlns="http://www.w3.org/2000/svg" xmlns:xlink="http://www.w3.org/1999/xlink" width="24" height="24" viewBox="0 0 24 24">
  <defs>
    <clipPath id="clip-path">
      <path id="_Icon_小olor" data-name=" Icon 小olor" d="M9.24,12A9.25,9.25,0,0,1,0,2.76,2.763,2.763,0,0,1,2.76,0a2.7,2.7,0,0,1,.46.039,2.6,2.6,0,0,1,.435.11.6.6,0,0,1,.388.433L4.865,4.16a.6.6,0,0,1-.152.55c-.082.085-.084.087-.828.476a5.968,5.968,0,0,0,2.928,2.93c.389-.745.392-.747.477-.829a.607.607,0,0,1,.55-.152l3.578.821a.6.6,0,0,1,.433.388,2.622,2.622,0,0,1,.11.439A2.732,2.732,0,0,1,12,9.24,2.763,2.763,0,0,1,9.24,12" fill="#0d1c2e"/>
    </clipPath>
  </defs>
  <rect id="Rectangle" width="24" height="24" rx="6" fill="#64c962"/>
  <g id="Group_23" data-name="Group 23" transform="translate(4 4)">
    <path id="_Icon_小olor-2" data-name=" Icon 小olor" d="M9.24,12A9.25,9.25,0,0,1,0,2.76,2.763,2.763,0,0,1,2.76,0a2.7,2.7,0,0,1,.46.039,2.6,2.6,0,0,1,.435.11.6.6,0,0,1,.388.433L4.865,4.16a.6.6,0,0,1-.152.55c-.082.085-.084.087-.828.476a5.968,5.968,0,0,0,2.928,2.93c.389-.745.392-.747.477-.829a.607.607,0,0,1,.55-.152l3.578.821a.6.6,0,0,1,.433.388,2.622,2.622,0,0,1,.11.439A2.732,2.732,0,0,1,12,9.24,2.763,2.763,0,0,1,9.24,12" transform="translate(2 2)" fill="#fff"/>
  </g>
</svg>
