<svg xmlns="http://www.w3.org/2000/svg" width="24" height="24" viewBox="0 0 24 24">
  <g id="btn.message" transform="translate(-0.222)">
    <rect id="Rectangle" width="24" height="24" rx="6" transform="translate(0.222)" fill="#f99106"/>
    <g id="icon" transform="translate(5.332 5.261)">
      <path id="Subtraction_6" data-name="Subtraction 6" d="M3453.617-1355.783a6.725,6.725,0,0,1-3.622-1.057l-1.7.7a.81.81,0,0,1-.3.057.793.793,0,0,1-.16-.016.8.8,0,0,1-.406-.218.8.8,0,0,1-.218-.406.8.8,0,0,1,.041-.458l.689-1.705a6.705,6.705,0,0,1-.961-2.5,6.708,6.708,0,0,1,.086-2.674,6.693,6.693,0,0,1,1.122-2.429,6.684,6.684,0,0,1,1.978-1.8,6.516,6.516,0,0,1,3.432-.978l.162,0a6.5,6.5,0,0,1,3.542,1.151,6.769,6.769,0,0,1,2.049,2.132,6.784,6.784,0,0,1,.937,2.8,6.776,6.776,0,0,1-.356,2.935,6.771,6.771,0,0,1-1.581,2.5,6.755,6.755,0,0,1-4.023,1.916A6.731,6.731,0,0,1,3453.617-1355.783Zm-2.336-5.739a.5.5,0,0,0-.5.5.5.5,0,0,0,.5.5h5a.5.5,0,0,0,.5-.5.5.5,0,0,0-.5-.5Zm1-2a.5.5,0,0,0-.5.5.5.5,0,0,0,.5.5h4a.5.5,0,0,0,.5-.5.5.5,0,0,0-.5-.5Zm3-2a.5.5,0,0,0-.5.5.5.5,0,0,0,.5.5h1a.5.5,0,0,0,.5-.5.5.5,0,0,0-.5-.5Z" transform="translate(-3446.89 1369.261)" fill="#fff"/>
    </g>
  </g>
</svg>
