<svg xmlns="http://www.w3.org/2000/svg" xmlns:xlink="http://www.w3.org/1999/xlink" width="36" height="36" viewBox="0 0 36 36">
  <defs>
    <clipPath id="clip-path">
      <path id="_Icon_小olor" data-name=" Icon 小olor" d="M12.32,16A12.334,12.334,0,0,1,0,3.68,3.684,3.684,0,0,1,3.68,0a3.606,3.606,0,0,1,.613.052A3.461,3.461,0,0,1,4.873.2.8.8,0,0,1,5.39.776l1.1,4.771a.8.8,0,0,1-.2.733c-.11.114-.112.116-1.1.635a7.958,7.958,0,0,0,3.9,3.906c.519-.993.522-1,.636-1.1a.809.809,0,0,1,.734-.2l4.771,1.1a.8.8,0,0,1,.577.517,3.5,3.5,0,0,1,.147.585A3.642,3.642,0,0,1,16,12.32,3.684,3.684,0,0,1,12.32,16" fill="#0d1c2e"/>
    </clipPath>
  </defs>
  <g id="Group_71279" data-name="Group 71279" transform="translate(-299 -313)">
    <rect id="Rectangle" width="36" height="36" rx="12" transform="translate(299 313)" fill="#64c962" opacity="0.6"/>
    <g id="Group_71288" data-name="Group 71288" transform="translate(307 321)">
      <path id="_Icon_小olor-2" data-name=" Icon 小olor" d="M12.32,16A12.334,12.334,0,0,1,0,3.68,3.684,3.684,0,0,1,3.68,0a3.606,3.606,0,0,1,.613.052A3.461,3.461,0,0,1,4.873.2.8.8,0,0,1,5.39.776l1.1,4.771a.8.8,0,0,1-.2.733c-.11.114-.112.116-1.1.635a7.958,7.958,0,0,0,3.9,3.906c.519-.993.522-1,.636-1.1a.809.809,0,0,1,.734-.2l4.771,1.1a.8.8,0,0,1,.577.517,3.5,3.5,0,0,1,.147.585A3.642,3.642,0,0,1,16,12.32,3.684,3.684,0,0,1,12.32,16" transform="translate(2 2)" fill="#fff"/>
    </g>
  </g>
</svg>
