<svg xmlns="http://www.w3.org/2000/svg" width="36" height="36" viewBox="0 0 36 36">
  <g id="Group_71279" data-name="Group 71279" transform="translate(-299 -313)">
    <rect id="Rectangle" width="36" height="36" rx="12" transform="translate(299 313)" fill="#884dff" opacity="0.6"/>
    <g id="Group_512" data-name="Group 512" transform="translate(308 322)">
      <circle id="Ellipse_114" data-name="Ellipse 114" cx="9" cy="9" r="9" transform="translate(18 0) rotate(90)" fill="none" stroke="#fff" stroke-linecap="round" stroke-linejoin="round" stroke-width="1.5" stroke-dasharray="0 0"/>
      <path id="Ellipse_117" data-name="Ellipse 117" d="M0,3.529a12,12,0,0,1,17,0" transform="translate(12.5 0.5) rotate(90)" fill="none" stroke="#fff" stroke-linecap="round" stroke-linejoin="round" stroke-width="1.5" stroke-dasharray="0 0"/>
      <path id="Ellipse_118" data-name="Ellipse 118" d="M0,0A11.963,11.963,0,0,0,8.5,3.529,11.963,11.963,0,0,0,17,0" transform="translate(9.029 0.5) rotate(90)" fill="none" stroke="#fff" stroke-linecap="round" stroke-linejoin="round" stroke-width="1.5" stroke-dasharray="0 0"/>
      <path id="Ellipse_115" data-name="Ellipse 115" d="M2.292,0a11.837,11.837,0,0,0,0,14" transform="translate(16 11) rotate(90)" fill="none" stroke="#fff" stroke-linecap="round" stroke-linejoin="round" stroke-width="1.5" stroke-dasharray="0 0"/>
      <path id="Ellipse_116" data-name="Ellipse 116" d="M0,0A11.763,11.763,0,0,1,2.292,7,11.763,11.763,0,0,1,0,14" transform="translate(16 4.709) rotate(90)" fill="none" stroke="#fff" stroke-linecap="round" stroke-linejoin="round" stroke-width="1.5" stroke-dasharray="0 0"/>
    </g>
  </g>
</svg>
