<svg xmlns="http://www.w3.org/2000/svg" width="21.299" height="21.3" viewBox="0 0 21.299 21.3">
  <g id="Group_69640" data-name="Group 69640" transform="translate(-5985.35 -816.35)">
    <path id="Path_64296" data-name="Path 64296" d="M5988.541,817h3.386a2.546,2.546,0,0,1,2.533,2.56v3.415a2.546,2.546,0,0,1-2.533,2.56h-3.386a2.548,2.548,0,0,1-2.541-2.56V819.56A2.548,2.548,0,0,1,5988.541,817Zm0,11.465h3.386a2.546,2.546,0,0,1,2.533,2.56v3.415a2.546,2.546,0,0,1-2.533,2.56h-3.386a2.548,2.548,0,0,1-2.541-2.56v-3.415A2.548,2.548,0,0,1,5988.541,828.465Zm14.919,0h-3.387a2.546,2.546,0,0,0-2.533,2.56v3.415a2.546,2.546,0,0,0,2.533,2.56h3.387a2.548,2.548,0,0,0,2.54-2.56v-3.415A2.547,2.547,0,0,0,6003.459,828.465Z" fill="none" stroke="#b0b3c7" stroke-width="1.3" fill-rule="evenodd"/>
    <path id="Path_64508" data-name="Path 64508" d="M5988.541,817h3.386a2.546,2.546,0,0,1,2.533,2.56v3.415a2.546,2.546,0,0,1-2.533,2.56h-3.386a2.548,2.548,0,0,1-2.541-2.56V819.56A2.548,2.548,0,0,1,5988.541,817Z" transform="translate(11.54)" fill="none" stroke="#b0b3c7" stroke-width="1.3" fill-rule="evenodd"/>
  </g>
</svg>
