<svg xmlns="http://www.w3.org/2000/svg" xmlns:xlink="http://www.w3.org/1999/xlink" width="11.117" height="11.118" viewBox="0 0 11.117 11.118">
  <defs>
    <clipPath id="clip-path">
      <path id="_Icon_小olor" data-name=" Icon 小olor" d="M7.206,11.118H7.168a.617.617,0,0,1-.568-.493l-.95-4.674a.617.617,0,0,0-.482-.482L.495,4.516a.617.617,0,0,1-.072-1.19L10.3.033a.617.617,0,0,1,.781.781L7.791,10.7a.616.616,0,0,1-.586.422" transform="translate(0 0)" fill="#0d1c2e"/>
    </clipPath>
  </defs>
  <g id="Group_7" data-name="Group 7" transform="translate(-2 -3.999)">
    <path id="_Icon_小olor-2" data-name=" Icon 小olor" d="M7.206,11.118H7.168a.617.617,0,0,1-.568-.493l-.95-4.674a.617.617,0,0,0-.482-.482L.495,4.516a.617.617,0,0,1-.072-1.19L10.3.033a.617.617,0,0,1,.781.781L7.791,10.7a.616.616,0,0,1-.586.422" transform="translate(2 3.999)" fill="#3f51b5"/>
  </g>
</svg>
