<svg xmlns="http://www.w3.org/2000/svg" width="41.344" height="62.319" viewBox="0 0 41.344 62.319">
  <g id="man" transform="translate(-78.125)">
    <path id="Path_21244" data-name="Path 21244" d="M119.47,55.975v5.27a1.074,1.074,0,0,1-1.074,1.074H79.2a1.074,1.074,0,0,1-1.074-1.074v-5.27a10.019,10.019,0,0,1,6.423-9.348c.5-1.3.275-.711,1.027-2.65a2.148,2.148,0,0,1,3.263-.962l2.583,1.874a5.627,5.627,0,0,0,2.309-4.506v-.917l.02-.051a13.291,13.291,0,0,1-8.208-12.282v-.419a3.311,3.311,0,0,1-3.356-3.294V13.96A13.96,13.96,0,0,1,96.147,0h5.5a13.96,13.96,0,0,1,13.96,13.96v9.262a3.49,3.49,0,0,1-3.49,3.49v.419a13.291,13.291,0,0,1-8.209,12.283l.021.05v.917a5.547,5.547,0,0,0,2.279,4.478l2.545-1.846a2.148,2.148,0,0,1,3.263.964c.757,1.952.537,1.383,1.027,2.648a10.016,10.016,0,0,1,6.423,9.348Z" transform="translate(-0.001)" fill="#ffd6a6"/>
    <path id="Path_21245" data-name="Path 21245" d="M119.469,330.758v5.27A1.074,1.074,0,0,1,118.4,337.1H79.2a1.074,1.074,0,0,1-1.074-1.074v-5.27a10.016,10.016,0,0,1,6.421-9.347l1.029-2.651a2.148,2.148,0,0,1,3.263-.962l8.068,5.851a3.22,3.22,0,0,0,3.783,0l8.068-5.851a2.148,2.148,0,0,1,3.263.964l1.027,2.648A10.016,10.016,0,0,1,119.469,330.758Z" transform="translate(0 -274.784)" fill="#fe4f60"/>
    <path id="Path_21246" data-name="Path 21246" d="M159.954,125.752a13.289,13.289,0,1,1-26.578,0v-8.71a3.118,3.118,0,0,1,5.168-2.363,16.308,16.308,0,0,0,7.785,3.7,1.072,1.072,0,0,0,1.213-1.373,4.7,4.7,0,0,1-.214-1.6,1.071,1.071,0,0,1,1.661-.841,17.319,17.319,0,0,0,9.877,2.9,1.073,1.073,0,0,1,1.088,1.073C159.954,120.075,159.954,124.361,159.954,125.752Z" transform="translate(-47.834 -98.62)" fill="#ffdfba"/>
    <path id="Path_21247" data-name="Path 21247" d="M141.8,13.96v9.262a3.49,3.49,0,0,1-3.49,3.49v-6.8a1.073,1.073,0,0,0-1.088-1.073,17.318,17.318,0,0,1-9.877-2.9,1.071,1.071,0,0,0-1.661.841,4.7,4.7,0,0,0,.214,1.6,1.072,1.072,0,0,1-1.213,1.373,16.307,16.307,0,0,1-7.785-3.7,3.118,3.118,0,0,0-5.168,2.363v8.292a3.311,3.311,0,0,1-3.356-3.294V13.96A13.96,13.96,0,0,1,122.337,0h5.5A13.961,13.961,0,0,1,141.8,13.963Z" transform="translate(-26.191)" fill="#42434d"/>
    <path id="Path_21248" data-name="Path 21248" d="M203.751,295.884a13.326,13.326,0,0,1-10.505,0,8.317,8.317,0,0,0,.152-2.2l.02-.05a13.317,13.317,0,0,0,10.162,0l.02.05a8.316,8.316,0,0,0,.151,2.2Z" transform="translate(-99.668 -254.215)" fill="#f7c388"/>
    <path id="Path_21249" data-name="Path 21249" d="M164.407,406.869a1.074,1.074,0,0,1,.065-1.517,13.561,13.561,0,0,0,3.751-5.869,1.074,1.074,0,1,1,2.046.653,15.708,15.708,0,0,1-4.344,6.8,1.074,1.074,0,0,1-1.518-.067Z" transform="translate(-74.455 -345.212)" fill="#2c2c33"/>
    <path id="Path_21250" data-name="Path 21250" d="M258.368,406.933a15.706,15.706,0,0,1-4.344-6.8,1.074,1.074,0,1,1,2.046-.653,13.557,13.557,0,0,0,3.751,5.869,1.074,1.074,0,0,1-1.453,1.582Z" transform="translate(-152.243 -345.211)" fill="#2c2c33"/>
    <path id="Path_21251" data-name="Path 21251" d="M90.526,319.019c-.84.486-.892,1-1.95,3.73a10.016,10.016,0,0,0-6.423,9.348v5H79.2a1.074,1.074,0,0,1-1.074-1.074v-5.27a10.016,10.016,0,0,1,6.422-9.347l1.028-2.651a2.147,2.147,0,0,1,3.263-.962Z" transform="translate(0 -274.781)" fill="#ff6d7a"/>
    <path id="Path_21252" data-name="Path 21252" d="M293.745,319.02c.84.486.892,1,1.95,3.73a10.016,10.016,0,0,1,6.423,9.348v5h2.953a1.074,1.074,0,0,0,1.074-1.074v-5.27a10.016,10.016,0,0,0-6.421-9.347l-1.029-2.651a2.147,2.147,0,0,0-3.263-.962Z" transform="translate(-186.676 -274.782)" fill="#e84857"/>
    <path id="Path_21253" data-name="Path 21253" d="M307.052,341.2c-5.729,1.46-5.322,1.371-5.513,1.371a1.074,1.074,0,0,1-.264-2.114l3.9-1,.4,1.026a9.85,9.85,0,0,1,1.477.712Z" transform="translate(-192.495 -293.893)" fill="#e84857"/>
    <path id="Path_21254" data-name="Path 21254" d="M121.527,341.678a1.074,1.074,0,0,1-1.039.808c-.192,0,.213.088-5.513-1.371a9.85,9.85,0,0,1,1.477-.713l.4-1.026,3.9.995a1.073,1.073,0,0,1,.775,1.307Z" transform="translate(-31.903 -293.821)" fill="#fe4f60"/>
    <path id="Path_21255" data-name="Path 21255" d="M143.655,141.172a2.122,2.122,0,0,1-1.93,3.758,13.292,13.292,0,0,1-8.352-12.341c0-9.349,0-8.8.006-8.936a2.014,2.014,0,0,1,4.021.166V129.9A13.193,13.193,0,0,0,143.655,141.172Z" transform="translate(-47.832 -105.453)" fill="#ffebd2"/>
    <path id="Path_21256" data-name="Path 21256" d="M132.53.808a1.658,1.658,0,0,1-.579,3.22h-5.588a13.96,13.96,0,0,0-13.809,11.909,1.6,1.6,0,0,1-.275.685,3.042,3.042,0,0,0-.548,1.737V23.78c0,2.058-3.356,2.512-3.356-.36V13.96A13.96,13.96,0,0,1,122.335,0h5.5a13.936,13.936,0,0,1,4.691.808Z" transform="translate(-26.189)" fill="#4d4e59"/>
  </g>
</svg>
