<svg xmlns="http://www.w3.org/2000/svg" width="20.377" height="20.413" viewBox="0 0 20.377 20.413">
  <g id="bookmark" transform="translate(-1.776 -1.755)">
    <path id="Combined_Shape" data-name="Combined Shape" d="M19.205,20.276l-2.977-2.362H7.7a2.807,2.807,0,0,1-2.674-2.669V14.62a.753.753,0,0,1,.733-.656.739.739,0,0,1,.718.656v.625a1.251,1.251,0,0,0,1.25,1.249h8.75a.63.63,0,0,1,.39.137l2.111,1.688V7.745a1.252,1.252,0,0,0-1.25-1.25c-.346,0-.62-.407-.62-.752a.624.624,0,0,1,.62-.629,2.605,2.605,0,0,1,2.652,2.632l0,12.043a.624.624,0,0,1-.354.563,1.478,1.478,0,0,1-.424.062A.634.634,0,0,1,19.205,20.276ZM.37,15.85l-.077-.039A.491.491,0,0,1,0,15.3V2.8A2.957,2.957,0,0,1,.659.883,2.605,2.605,0,0,1,2.724,0h11.25A2.478,2.478,0,0,1,16,.856,2.974,2.974,0,0,1,16.6,2.745v7.5a2.556,2.556,0,0,1-2.649,2.683H4.945L1.357,15.811a1.612,1.612,0,0,1-.669.167A1.1,1.1,0,0,1,.37,15.85Zm1.1-13.1V13.911L4.2,11.64a.625.625,0,0,1,.4-.145h9.375a1.251,1.251,0,0,0,1.25-1.25v-7.5a1.251,1.251,0,0,0-1.25-1.25H2.724A1.251,1.251,0,0,0,1.474,2.745Zm3.125,5a.625.625,0,0,1,0-1.25h5a.625.625,0,0,1,0,1.25Zm0-2.5A.625.625,0,0,1,4.6,4h7.5a.625.625,0,1,1,0,1.249Z" transform="translate(1.776 1.755)" fill="#b0b3c7"/>
  </g>
</svg>
