<svg xmlns="http://www.w3.org/2000/svg" width="21.217" height="17.195" viewBox="0 0 21.217 17.195">
  <g id="Group_69612" data-name="Group 69612" transform="translate(-25.891 -61.403)">
    <path id="Icon_awesome-bell" data-name="Icon awesome-bell" d="M7.523,17.195a2.149,2.149,0,0,0,2.148-2.149h-4.3A2.149,2.149,0,0,0,7.523,17.195Zm7.233-5.028c-.649-.7-1.863-1.746-1.863-5.182A5.3,5.3,0,0,0,8.6,1.775v-.7a1.074,1.074,0,1,0-2.148,0v.7a5.3,5.3,0,0,0-4.3,5.211c0,3.436-1.214,4.484-1.863,5.182A1.049,1.049,0,0,0,0,12.9a1.076,1.076,0,0,0,1.078,1.075H13.967A1.075,1.075,0,0,0,15.045,12.9,1.049,1.049,0,0,0,14.756,12.167Z" transform="translate(28.977 61.403)" fill="#1d1d26"/>
    <path id="Fill_1" data-name="Fill 1" d="M.469,4.915a.469.469,0,0,1-.331-.8A2.328,2.328,0,0,0,.822,2.457,2.328,2.328,0,0,0,.137.8.469.469,0,0,1,.8.137a3.259,3.259,0,0,1,.96,2.32A3.259,3.259,0,0,1,.8,4.778a.467.467,0,0,1-.331.137" transform="translate(45.349 65.788)"/>
    <path id="Fill_3" data-name="Fill 3" d="M.469,2.263a.469.469,0,0,1-.331-.8.466.466,0,0,0,.137-.331A.466.466,0,0,0,.137.8.469.469,0,0,1,.8.137a1.408,1.408,0,0,1,0,1.989.467.467,0,0,1-.331.137" transform="translate(44.023 67.114)"/>
    <g id="Group_7" data-name="Group 7" transform="translate(27 65.531)">
      <path id="Fill_5" data-name="Fill 5" d="M1.291,4.915A.467.467,0,0,1,.96,4.778a3.284,3.284,0,0,1,0-4.64A.469.469,0,0,1,1.623.8a2.347,2.347,0,0,0,0,3.315.469.469,0,0,1-.331.8" transform="translate(-1.109 0.257)"/>
    </g>
    <path id="Fill_8" data-name="Fill 8" d="M.743,2.263a.467.467,0,0,1-.331-.137,1.408,1.408,0,0,1,0-1.989A.469.469,0,1,1,1.074.8a.469.469,0,0,0,0,.663.469.469,0,0,1-.331.8" transform="translate(27.766 67.114)"/>
  </g>
</svg>
