<svg xmlns="http://www.w3.org/2000/svg" width="36" height="36" viewBox="0 0 36 36">
  <g id="Group_71277" data-name="Group 71277" transform="translate(-266)">
    <rect id="Rectangle" width="36" height="36" rx="12" transform="translate(266)" fill="#f3651f" opacity="0.6"/>
    <path id="Path_59763" data-name="Path 59763" d="M84.994,277a4.9,4.9,0,0,0-9.808,0v.091a.817.817,0,0,0,1.635,0V277a3.269,3.269,0,1,1,6.538,0v2.27a.831.831,0,0,0,0,.091H76.242c-.734,0-1.334,0-1.822.04a3.617,3.617,0,0,0-1.387.346,3.545,3.545,0,0,0-1.548,1.547,3.625,3.625,0,0,0-.346,1.387c-.04.488-.04,1.088-.04,1.822h0v2.249h0c0,.734,0,1.334.04,1.822a3.625,3.625,0,0,0,.346,1.387,3.545,3.545,0,0,0,1.548,1.547,3.617,3.617,0,0,0,1.387.346c.488.04,1.088.04,1.822.04h7.7c.734,0,1.334,0,1.822-.04a3.617,3.617,0,0,0,1.387-.346,3.545,3.545,0,0,0,1.548-1.547,3.625,3.625,0,0,0,.346-1.387c.04-.488.04-1.088.04-1.822v-2.249c0-.734,0-1.334-.04-1.822a3.625,3.625,0,0,0-.346-1.387,3.545,3.545,0,0,0-1.548-1.547,3.617,3.617,0,0,0-1.387-.346c-.231-.019-.488-.029-.772-.034a.823.823,0,0,0,.006-.1Zm-10.441,4.03a2.041,2.041,0,0,0-.778.173,1.9,1.9,0,0,0-.833.834,2.037,2.037,0,0,0-.173.777c-.034.413-.034.946-.034,1.723v2.18c0,.776,0,1.309.034,1.723a2.037,2.037,0,0,0,.173.777,1.9,1.9,0,0,0,.833.834,2.04,2.04,0,0,0,.778.173c.413.034.946.034,1.723.034H83.9c.776,0,1.309,0,1.723-.034a2.04,2.04,0,0,0,.778-.173,1.9,1.9,0,0,0,.833-.834,2.037,2.037,0,0,0,.173-.777c.034-.413.034-.946.034-1.723v-2.18c0-.776,0-1.31-.034-1.723a2.037,2.037,0,0,0-.173-.777,1.9,1.9,0,0,0-.833-.834,2.041,2.041,0,0,0-.778-.173C85.214,281,84.681,281,83.9,281H76.276C75.5,281,74.967,281,74.553,281.034ZM81,286.3a1.816,1.816,0,1,0-1.816,0V287.9a.908.908,0,1,0,1.816,0Z" transform="translate(203.9 -263.998)" fill="#fff" fill-rule="evenodd"/>
  </g>
</svg>
