<svg xmlns="http://www.w3.org/2000/svg" width="20.65" height="20" viewBox="0 0 20.65 20">
  <g id="single-04" transform="translate(-2 -2)">
    <path id="Combined_Shape" data-name="Combined Shape" d="M2.371,20a2.374,2.374,0,0,1-2.32-2.862A10.158,10.158,0,0,1,6.822,9.567a5.312,5.312,0,1,1,8.491-4.254,5.274,5.274,0,0,1-2.13,4.251,10.215,10.215,0,0,1,1.176.472.78.78,0,0,1,.37,1.04.787.787,0,0,1-.707.446.768.768,0,0,1-.334-.076,8.517,8.517,0,0,0-3.479-.826c-.079,0-.145,0-.209,0s-.13,0-.207,0a8.631,8.631,0,0,0-8.212,6.835.817.817,0,0,0,.166.684.794.794,0,0,0,.625.3h9.622a.781.781,0,1,1,0,1.562ZM10.185,9.058a3.749,3.749,0,1,0-.374,0l.189,0ZM13.35,16A3.65,3.65,0,1,1,17,19.65,3.655,3.655,0,0,1,13.35,16Zm1.3,0A2.35,2.35,0,1,0,17,13.649,2.353,2.353,0,0,0,14.649,16Z" transform="translate(2 2)" fill="#b0b3c7"/>
  </g>
</svg>
