<svg xmlns="http://www.w3.org/2000/svg" width="11" height="11" viewBox="0 0 11 11">
  <g id="ic_rate_full" transform="translate(-2 -1)">
    <path id="Path" d="M10.761,4.985a.843.843,0,0,0,.2-.844.794.794,0,0,0-.637-.561l-2.663-.4a.349.349,0,0,1-.262-.2L6.208.459a.775.775,0,0,0-1.415,0L3.6,2.978a.35.35,0,0,1-.262.2l-2.663.4a.794.794,0,0,0-.637.561.843.843,0,0,0,.2.844L2.166,6.946a.374.374,0,0,1,.1.322l-.455,2.769a.831.831,0,0,0,.172.668.774.774,0,0,0,.972.2L5.338,9.6a.343.343,0,0,1,.324,0L8.044,10.9a.755.755,0,0,0,.367.1.778.778,0,0,0,.605-.3.831.831,0,0,0,.172-.668L8.734,7.268a.374.374,0,0,1,.1-.322Z" transform="translate(2 1)" fill="#f99106"/>
  </g>
</svg>
