<svg xmlns="http://www.w3.org/2000/svg" xmlns:xlink="http://www.w3.org/1999/xlink" width="323.214" height="237.733" viewBox="0 0 323.214 237.733">
  <defs>
    <filter id="Path_59761" x="106.887" y="115.507" width="122.226" height="122.226" filterUnits="userSpaceOnUse">
      <feOffset dy="1" input="SourceAlpha"/>
      <feGaussianBlur stdDeviation="5" result="blur"/>
      <feFlood flood-opacity="0.278"/>
      <feComposite operator="in" in2="blur"/>
      <feComposite in="SourceGraphic"/>
    </filter>
  </defs>
  <g id="Group_69603" data-name="Group 69603" transform="translate(-20 -322.849)">
    <g id="Group_46157" data-name="Group 46157" transform="translate(-32 -7744.717)">
      <rect id="Rectangle_2986" data-name="Rectangle 2986" width="60.91" height="21.186" transform="translate(82.131 8218.951)" fill="none" stroke="#f2a500" stroke-width="2"/>
      <rect id="Rectangle_2987" data-name="Rectangle 2987" width="60.91" height="21.186" transform="translate(111.262 8240.138)" fill="none" stroke="#f2a500" stroke-width="2"/>
      <rect id="Rectangle_2988" data-name="Rectangle 2988" width="58.262" height="21.186" transform="translate(53 8240.138)" fill="none" stroke="#f2a500" stroke-width="2"/>
      <rect id="Rectangle_2989" data-name="Rectangle 2989" width="164.192" height="116.524" rx="8" transform="translate(145.689 8144.8)" fill="#fff" stroke="#1d1d26" stroke-width="2"/>
      <path id="Path_23136" data-name="Path 23136" d="M251,8205.682a35.681,35.681,0,1,1,35.681,35.682H260.515a9.516,9.516,0,0,1-9.515-9.518Z" transform="translate(37.497 19.317)" fill="#ffbd2f" stroke="#1d1d26" stroke-width="2"/>
      <path id="Path_23137" data-name="Path 23137" d="M284.021,8195h-3.77v5.1l-4.124-1.568L275,8202.47l4.158,1.523-2.573,3.984,2.926,2.486,2.607-4.059,2.678,4.059,2.925-2.449-2.607-4.021,4.158-1.523-1.163-3.936-4.088,1.568Z" transform="translate(42.042 24.05)" fill="#1d1d26"/>
      <path id="Path_23138" data-name="Path 23138" d="M184,8155.569a3.566,3.566,0,0,1,3.568-3.568h40.439a3.566,3.566,0,0,1,3.568,3.568v37.049a3.575,3.575,0,0,1-1.972,3.188l-20.219,10.109a3.584,3.584,0,0,1-3.192,0l-20.219-10.109a3.575,3.575,0,0,1-1.972-3.187Z" transform="translate(24.809 15.907)" fill="#ffbd2f"/>
      <path id="Path_23139" data-name="Path 23139" d="M180,8159.379a2.382,2.382,0,0,1,2.379-2.379h40.439a2.382,2.382,0,0,1,2.379,2.379v37.051a2.365,2.365,0,0,1-1.315,2.117l-20.219,10.107a2.31,2.31,0,0,1-2.127,0l-20.219-10.107A2.365,2.365,0,0,1,180,8196.43Z" transform="translate(24.051 16.855)" fill="#ffbd2f" stroke="#1d1d26" stroke-width="2"/>
      <path id="Path_23140" data-name="Path 23140" d="M195,8177.948l4.163,4.162L209.273,8172" transform="translate(26.892 19.695)" fill="none" stroke="#1d1d26" stroke-width="2"/>
      <path id="Path_23141" data-name="Path 23141" d="M248.635,8140.659v-17.84A42.82,42.82,0,0,0,205.818,8080h0A42.82,42.82,0,0,0,163,8122.819v17.84" transform="translate(20.832 2.272)" fill="none" stroke="#ffbd2f" stroke-width="12"/>
      <path id="Path_23142" data-name="Path 23142" d="M238.984,8139.334v-17.842A34.49,34.49,0,0,0,204.492,8087h0A34.49,34.49,0,0,0,170,8121.492v17.842" transform="translate(22.157 3.598)" fill="none" stroke="#1d1d26" stroke-width="2"/>
      <line id="Line_53" data-name="Line 53" x1="6.644" y2="6.815" transform="translate(292.917 8118.787)" fill="none" stroke="#1d1d26" stroke-width="2"/>
      <line id="Line_54" data-name="Line 54" x1="9.515" y2="0.119" transform="translate(295.396 8131.537)" fill="none" stroke="#1d1d26" stroke-width="2"/>
      <line id="Line_55" data-name="Line 55" x2="9.515" transform="translate(286.119 8113.21) rotate(89.287)" fill="none" stroke="#1d1d26" stroke-width="2"/>
      <path id="Path_23143" data-name="Path 23143" d="M102.957,8095.274l-2.375-10.682-10.672,2.379-2.375-10.67-10.672,2.367L74.488,8068" transform="translate(4.069 -0.001)" fill="none" stroke="#f2a500" stroke-width="4"/>
      <path id="Path_23144" data-name="Path 23144" d="M342.281,8074.08l-10.871,1.166,1.166,10.871-10.871,1.166,1.167,10.869L312,8099.318" transform="translate(32.72 8.573)" fill="none" stroke="#f2a500" stroke-width="4"/>
      <path id="Path_23145" data-name="Path 23145" d="M152.143,8269.967l-9.752-4.947-4.944,9.752-9.751-4.947-4.944,9.754L113,8274.643" transform="translate(11.363 8.125)" fill="none" stroke="#f2a500" stroke-width="4" opacity="0.3"/>
      <path id="Path_23146" data-name="Path 23146" d="M96.969,8138.8l-10.307,3.652,3.646,10.3L80,8156.4" transform="translate(5.113 13.408)" fill="none" stroke="#1d1d26" stroke-width="4"/>
      <path id="Path_23147" data-name="Path 23147" d="M299.938,8269.039A13.009,13.009,0,0,0,286.3,8291.2l2.387-3.877a8.456,8.456,0,0,1,8.867-14.4Z" transform="translate(43.01 8.522)" fill="#1d1d26"/>
      <path id="Path_23148" data-name="Path 23148" d="M183.9,8028.473a13.007,13.007,0,1,0-20.449-16.08l3.579,2.807a8.455,8.455,0,0,1,13.291,10.455Z" transform="translate(-24.279 62.126)" fill="#f2a500" opacity="0.3"/>
      <path id="Path_23149" data-name="Path 23149" d="M250.314,8038.93l17.55-3.2L257.5,8048.5Z" transform="translate(35.805 39.345)" fill="none" stroke="#1d1d26" stroke-width="1"/>
      <path id="Path_23150" data-name="Path 23150" d="M201,8317.839V8300l10.7,12.488Z" transform="translate(35.164 -33.287)" fill="#ffbd2f" stroke="#1d1d26" stroke-width="1"/>
    </g>
    <g id="Group_69602" data-name="Group 69602" transform="translate(-517.488 -1792.676)">
      <g transform="matrix(1, 0, 0, 1, 537.49, 2115.52)" filter="url(#Path_59761)">
        <path id="Path_59761-2" data-name="Path 59761" d="M46.113,0A46.113,46.113,0,1,1,0,46.113,46.113,46.113,0,0,1,46.113,0Z" transform="translate(121.89 129.51)" fill="#1bbf36"/>
      </g>
      <path id="Path_59762" data-name="Path 59762" d="M685,2274.5l14.209,16.045L733.726,2254" transform="translate(-3.875 23.453)" fill="none" stroke="#1d1d26" stroke-width="5" opacity="0.3"/>
      <path id="Path_23102" data-name="Path 23102" d="M685,2275.5l14.209,15.045L733.726,2254" transform="translate(-3.875 19.453)" fill="none" stroke="#fff" stroke-width="5"/>
    </g>
  </g>
</svg>
