<svg id="Icon_ionic-ios-timer" data-name="Icon ionic-ios-timer" xmlns="http://www.w3.org/2000/svg" width="11.045" height="11.047" viewBox="0 0 11.045 11.047">
  <path id="Path_24" data-name="Path 24" d="M9.458,14.985a5.524,5.524,0,0,0,3.833-9.5.443.443,0,1,0-.616.638A4.636,4.636,0,1,1,9.017,4.846V6.575a.445.445,0,0,0,.889,0V4.382a.444.444,0,0,0-.445-.445,5.524,5.524,0,0,0,0,11.047Z" transform="translate(-3.938 -3.938)" fill="#03038f"/>
  <path id="Path_25" data-name="Path 25" d="M14.349,11.3,11.6,13.278a.832.832,0,0,0,.967,1.353.8.8,0,0,0,.193-.193l1.975-2.748a.277.277,0,0,0-.387-.387Z" transform="translate(-6.616 -8.379)" fill="#03038f"/>
</svg>
