<svg xmlns="http://www.w3.org/2000/svg" width="36" height="36" viewBox="0 0 36 36">
  <g id="Group_71279" data-name="Group 71279" transform="translate(-299 -313)">
    <rect id="Rectangle" width="36" height="36" rx="12" transform="translate(299 313)" fill="#884dff" opacity="0.6"/>
    <g id="Group" transform="translate(265.52 -13.691)">
      <path id="Vector" d="M1.211,0A1.213,1.213,0,0,0,0,1.211V2.423H2.423V1.211A1.213,1.213,0,0,0,1.211,0Z" transform="translate(50.269 341.057)" fill="#fff"/>
      <path id="Vector-2" data-name="Vector" d="M16.272.119a1.212,1.212,0,0,0-1.283.148,4.986,4.986,0,0,1-5.749,0,1.212,1.212,0,0,0-1.519,0,4.986,4.986,0,0,1-5.749,0A1.211,1.211,0,0,0,0,1.212V10.9c0,3.8,3.044,6.949,8.142,8.432a1.218,1.218,0,0,0,.677,0c5.1-1.483,8.141-4.634,8.141-8.432V1.212A1.211,1.211,0,0,0,16.272.119ZM12.115,12.114A1.211,1.211,0,0,1,10.9,13.325H6.057a1.211,1.211,0,0,1-1.211-1.211V9.691A1.211,1.211,0,0,1,6.057,8.48V7.268a2.423,2.423,0,0,1,4.846,0V8.48a1.211,1.211,0,0,1,1.211,1.211Z" transform="translate(43 335)" fill="#fff"/>
      <path id="Vector-3" data-name="Vector" d="M.606,0a.606.606,0,1,0,.606.606A.606.606,0,0,0,.606,0Z" transform="translate(50.875 345.298)" fill="#fff"/>
    </g>
  </g>
</svg>
